<svg width="8" height="16" viewBox="0 0 8 16" fill="none" xmlns="http://www.w3.org/2000/svg">
    <path d="M4.6 6.8C4.5 6.8 4.5 6.7 4.4 6.7V3.6C5.6 3.7 6.6 4.2 6.6 4.2L7.5 2.4C7.4 2.4 6 1.6 4.4 1.6V0H3.4V1.6C2.6 1.8 2 2.1 1.4 2.5C0.8 3.1 0.4 3.9 0.4 4.8C0.4 5.5 0.6 7.1 3.4 8.4V12.3C2.5 12.1 1.4 11.6 1 11.4L0 13.1C0.2 13.2 1.8 14.1 3.4 14.3V16H4.4V14.3C6.7 14 8 12.2 8 10.5C8 9 7 7.8 4.6 6.8ZM3.4 6.2C2.6 5.7 2.4 5.2 2.4 4.9C2.4 4.5 2.5 4.2 2.8 4C3 3.9 3.2 3.8 3.4 3.7V6.2ZM4.4 12.3V8.9C5.5 9.4 6 10 6 10.5C6 11.1 5.7 12.1 4.4 12.3Z" fill="#1C2E45" fill-opacity="0.6"/>
</svg>
