<svg width="32" height="32" viewBox="0 0 24 24" fill="none" xmlns="http://www.w3.org/2000/svg">
    <path d="M4 6C4 5.44772 4.44772 5 5 5H19C19.5523 5 20 5.44772 20 6V6C20 6.55228 19.5523 7 19 7H5C4.44772 7 4 6.55228 4 6V6Z" fill="#1C2E45" fill-opacity="0.6"/>
    <path d="M4 10C4 9.44772 4.44772 9 5 9H19C19.5523 9 20 9.44772 20 10V10C20 10.5523 19.5523 11 19 11H5C4.44772 11 4 10.5523 4 10V10Z" fill="#1C2E45" fill-opacity="0.6"/>
    <path d="M4 14C4 13.4477 4.44772 13 5 13H19C19.5523 13 20 13.4477 20 14V14C20 14.5523 19.5523 15 19 15H5C4.44772 15 4 14.5523 4 14V14Z" fill="#1C2E45" fill-opacity="0.6"/>
    <path d="M4 18C4 17.4477 4.44772 17 5 17H19C19.5523 17 20 17.4477 20 18V18C20 18.5523 19.5523 19 19 19H5C4.44772 19 4 18.5523 4 18V18Z" fill="#1C2E45" fill-opacity="0.6"/>
</svg>
