<svg width="16" height="12" viewBox="0 0 16 12" fill="none" xmlns="http://www.w3.org/2000/svg">
    <path d="M4.40001 8.2C3.80001 8.3 3.00001 7.9 2.70001 7.8L2.20001 8.7C2.20001 8.7 3.10001 9.1 3.90001 9.2V10H4.90001V9.1C5.80001 8.8 6.30001 8 6.40001 7.3C6.40001 6.5 5.80001 5.9 4.50001 5.4C4.10001 5.2 3.40001 4.9 3.40001 4.5C3.40001 4 3.80001 3.7 4.40001 3.7C5.10001 3.7 5.80001 4 5.80001 4L6.20001 3.1C6.20001 3.1 5.70001 2.9 5.00001 2.7V2H4.00001V2.7C3.10001 2.9 2.50001 3.5 2.40001 4.4C2.40001 5.6 3.70001 6.1 4.20001 6.3C4.80001 6.5 5.50001 6.9 5.50001 7.2C5.50001 7.6 5.10001 8.1 4.40001 8.2Z" fill="#1C2E45" fill-opacity="0.6"/>
    <path d="M0 0V12H16V0H0ZM15 11H1V1H15V11Z" fill="#1C2E45" fill-opacity="0.6"/>
    <path d="M8 3H14V4H8V3Z" fill="#1C2E45" fill-opacity="0.6"/>
    <path d="M8 5H14V6H8V5Z" fill="#1C2E45" fill-opacity="0.6"/>
    <path d="M8 7H11V8H8V7Z" fill="#1C2E45" fill-opacity="0.6"/>
</svg>
