<svg width="17" height="16" viewBox="0 0 17 16" fill="none" xmlns="http://www.w3.org/2000/svg">
    <path d="M15.9386 7.75C15.8776 7.55 15.7736 7.379 15.6386 7.24C15.5336 7.127 15.3976 7.043 15.2446 7.002C15.3186 7.119 15.3856 7.254 15.4356 7.398C15.4916 7.545 15.5276 7.702 15.5386 7.865C15.5466 7.932 15.5506 8.003 15.5506 8.075C15.5506 8.147 15.5466 8.218 15.5386 8.289C15.5036 8.174 15.4556 8.081 15.3966 7.997C15.2736 7.831 15.1086 7.698 14.9166 7.614C14.7976 7.561 14.6686 7.532 14.5326 7.532C14.1866 7.532 13.8846 7.718 13.7216 7.996C13.6716 8.078 13.6316 8.167 13.6016 8.262C12.4196 6.294 10.2926 4.991 7.86062 4.991C7.73662 4.991 7.61362 4.994 7.49162 5.001C6.72862 5.002 5.97462 5.111 5.26062 5.314C5.19862 4.88 4.62862 4 2.00862 4L2.80862 6.51C2.30162 6.921 1.88162 7.415 1.56162 7.975L0.00861892 8C0.00861892 8 -0.161381 12 1.00862 12H1.54862C1.92762 12.638 2.41662 13.171 2.99362 13.589L3.00862 16H4.08862C5.39862 16 6.00862 16 6.00862 15.25V14.86C6.45962 14.948 6.97862 14.999 7.50862 14.999C8.03862 14.999 8.55762 14.948 9.05962 14.852L9.00862 15.25C9.00862 16 9.62862 16 10.9486 16H12.0086V13.61C12.9406 12.959 13.6216 12.005 13.9116 10.893C13.9686 10.866 14.0256 10.869 14.0836 10.869C14.1416 10.869 14.1986 10.866 14.2556 10.859C14.5066 10.813 14.7356 10.715 14.9346 10.576C15.2006 10.388 15.4086 10.122 15.5256 9.811C15.5536 9.718 15.5746 9.62 15.5886 9.519L15.5896 9.509C15.8106 9.247 15.9616 8.919 16.0086 8.558C16.0206 8.474 16.0276 8.387 16.0276 8.299C16.0276 8.102 15.9956 7.913 15.9366 7.736L15.9386 7.75ZM3.51862 7.75C3.93262 7.75 4.26862 8.086 4.26862 8.5C4.26862 8.914 3.93262 9.25 3.51862 9.25C3.10462 9.25 2.76862 8.914 2.76862 8.5C2.76862 8.086 3.10462 7.75 3.51862 7.75ZM5.88862 7C5.84262 7.015 5.78962 7.024 5.73462 7.024C5.54062 7.024 5.37262 6.914 5.28962 6.753C5.27662 6.715 5.27062 6.675 5.27062 6.633C5.27062 6.443 5.40662 6.285 5.58562 6.25C6.15662 6.109 6.80962 6.029 7.48162 6.029C7.51962 6.029 7.55662 6.029 7.59462 6.03C7.62062 6.03 7.65862 6.029 7.69562 6.029C8.36762 6.029 9.01962 6.109 9.64462 6.261C9.77062 6.285 9.90662 6.443 9.90662 6.633C9.90662 6.675 9.89962 6.715 9.88762 6.752C9.81762 6.881 9.69062 6.975 9.54162 6.999H9.38862C8.87662 6.872 8.28762 6.799 7.68262 6.799C7.66662 6.799 7.65162 6.799 7.63562 6.799C7.62462 6.799 7.60962 6.799 7.59362 6.799C6.98862 6.799 6.40062 6.872 5.83762 7.01L5.88862 7ZM14.5886 9.93C14.4586 10.025 14.3036 10.095 14.1356 10.129L14.0086 10.13V10C14.0086 10 14.0086 9.79 14.0086 9.69C14.1736 9.815 14.3826 9.89 14.6086 9.89C14.6156 9.89 14.6226 9.89 14.6296 9.89L14.5886 9.93ZM14.6686 9.25C14.6506 9.253 14.6286 9.254 14.6076 9.254C14.4316 9.254 14.2806 9.151 14.2096 9.002C14.1656 8.918 14.1406 8.822 14.1406 8.719C14.1406 8.616 14.1656 8.52 14.2106 8.436C14.2696 8.354 14.3676 8.298 14.4796 8.298C14.5386 8.298 14.5926 8.313 14.6406 8.34C14.8216 8.41 14.9486 8.584 14.9486 8.788V8.789C14.9576 8.851 14.9626 8.922 14.9626 8.994C14.9626 9.066 14.9576 9.137 14.9476 9.207C14.8816 9.219 14.8036 9.231 14.7236 9.231C14.7046 9.231 14.6846 9.23 14.6656 9.229L14.6686 9.25Z" fill="#1C2E45" fill-opacity="0.6"/>
    <path d="M8.00861 3H7.00861V2.83H7.25861V1.74H7.00861L7.55861 1.19H7.75861V2.83H8.00861V3Z" fill="#1C2E45" fill-opacity="0.6"/>
    <path d="M7.50861 0.75C8.33661 0.75 9.00861 1.422 9.00861 2.25C9.00861 3.078 8.33661 3.75 7.50861 3.75C6.68061 3.75 6.00861 3.078 6.00861 2.25C6.00861 1.422 6.68061 0.75 7.50861 0.75ZM7.50861 0C6.26561 0 5.25861 1.007 5.25861 2.25C5.25861 3.493 6.26561 4.5 7.50861 4.5C8.75161 4.5 9.75861 3.493 9.75861 2.25C9.75861 1.007 8.75161 0 7.50861 0Z" fill="#1C2E45" fill-opacity="0.6"/>
</svg>
