<svg width="16" height="16" viewBox="0 0 16 16" fill="none" xmlns="http://www.w3.org/2000/svg">
    <path d="M10.3 8.19995L9.39997 9.09995L10.3 9.99995L9.09998 11.2L13.4 15.5C14 16.1 14.9 16.1 15.5 15.5C16.1 14.9 16.1 14 15.5 13.4L10.3 8.19995ZM14.2 15C13.8 15 13.4 14.7 13.4 14.2C13.4 13.8 13.7 13.4 14.2 13.4C14.7 13.4 15 13.7 15 14.2C15 14.7 14.7 15 14.2 15Z" fill="#1C2E45" fill-opacity="0.6"/>
    <path d="M3.6 8L4.5 7.4L6 5.7L6.9 6.6L7.8 5.7L7.7 5.6C7.9 5.1 8 4.6 8 4C8 1.8 6.2 0 4 0C3.4 0 2.9 0.1 2.4 0.3L5.3 3.2L3.2 5.3L0.3 2.4C0.1 2.9 0 3.4 0 4C0 6.1 1.6 7.7 3.6 8Z" fill="#1C2E45" fill-opacity="0.6"/>
    <path d="M7.99999 10.8L8.89999 9.99998L7.99999 9.09998L13.7 3.39998L14.9 2.99998L16 0.799976L15.3 0.0999756L13 1.09998L12.5 2.29998L6.89999 7.99998L5.99999 7.09998L5.19999 7.99998C5.19999 7.99998 5.99999 8.59998 5.09999 9.49998C4.59999 9.99998 3.79999 9.39997 2.29999 10.9C1.79999 11.4 0.199988 13 0.199988 13C0.199988 13 -0.400012 14 0.799988 15.2C1.99999 16.4 2.99999 15.8 2.99999 15.8C2.99999 15.8 4.59999 14.2 5.09999 13.7C6.49999 12.3 5.99999 11.4 6.39999 11C7.29999 10.1 7.99999 10.8 7.99999 10.8ZM4.89999 10.4L5.59999 11.1L1.79999 14.9L1.09999 14.2L4.89999 10.4Z" fill="#1C2E45" fill-opacity="0.6"/>
</svg>
